<?xml version="1.0" encoding="UTF-8"?><svg id="Capa_1" xmlns="http://www.w3.org/2000/svg" viewBox="0 0 109 106"><defs><style>.cls-1{fill:#c4ff00;}</style></defs><path class="cls-1" d="M97.48,.5H12.02C6.22,.5,1.5,5.22,1.5,11.02V76.98c0,5.8,4.72,10.52,10.52,10.52H44.5v8.5h-12v8.5h41.5v-8.5h-11v-8.5h34.48c5.8,0,10.52-4.72,10.52-10.52V11.02c0-5.8-4.72-10.52-10.52-10.52Zm-26.48,98.69v2.12H35.5v-2.12h35.5Zm-11-3.19v1.5h-12.5v-10h12.5v8.5Zm45-19.02c0,4.15-3.37,7.52-7.52,7.52H12.02c-4.15,0-7.52-3.37-7.52-7.52V11.02c0-4.15,3.37-7.52,7.52-7.52H97.48c4.15,0,7.52,3.37,7.52,7.52V76.98Z"/><path class="cls-1" d="M8.5,77.5H101.5V6.5H8.5V77.5ZM11.5,9.5H98.5V74.5H11.5V9.5Z"/><path class="cls-1" d="M84.15,56.85l-6.6-3.81v-19.69c0-.13-.02-.27-.05-.39-.01-.04-.03-.07-.04-.11-.03-.09-.06-.17-.1-.25-.02-.04-.05-.07-.08-.1-.05-.07-.1-.14-.16-.2-.03-.03-.08-.06-.12-.09-.06-.05-.12-.1-.19-.15l-17.31-10.16v-6.9c0-.83-.67-1.5-1.5-1.5h-6c-.83,0-1.5,.67-1.5,1.5v6.91l-17.29,10.7c-.45,.28-.72,.78-.71,1.31,0,.01,0,.02,0,.03,0,.01,0,.03,0,.04v18.5l-6.8,5.09c-.32,.24-.53,.59-.59,.99s.05,.79,.28,1.11l3.6,4.8c.29,.39,.75,.6,1.2,.6,.31,0,.63-.1,.9-.3l5.38-4.03,17.76,10.52s0,0,.01,0c0,0,0,0,.01,0,.07,.04,.14,.06,.22,.09,.05,.02,.09,.04,.14,.06,.13,.03,.26,.05,.39,.05s.26-.02,.39-.05c.04-.01,.08-.03,.12-.05,.08-.03,.16-.05,.24-.1,0,0,0,0,.01,0s0,0,.01,0l17.38-10.39,6.5,3.75c.24,.14,.49,.2,.75,.2,.52,0,1.02-.27,1.3-.75l3-5.2c.2-.34,.25-.75,.15-1.14-.1-.38-.35-.71-.7-.91Zm-30.65-13.81l-16.45-9.17,14.04-8.69c.25,.19,.57,.32,.91,.32h1.5v17.54Zm19.59-9.69l-16.59,9.73V25.5h1.5c.39,0,.75-.16,1.02-.4l14.07,8.26Zm-19.59-16.85h3v6h-3v-6ZM30.5,61.5l-1.8-2.4,3.8-2.85,1-.75,1.8,2.4-1.62,1.21-3.18,2.38Zm8.1-4.2l-3.1-4.14v-16.61l18,10.03v20.78l-14.68-8.69c.03-.08,.05-.17,.06-.26,.06-.39-.05-.79-.28-1.11Zm17.9-10.74l3.08-1.81,14.97-8.79v16.62c-.09,.09-.18,.19-.24,.31l-3,5.2c-.09,.16-.15,.33-.18,.51l-14.63,8.74v-20.79Zm23.35,14.73l-3.75-2.17-1.45-.83,1.5-2.6,1.4,.81,3.8,2.19-1.5,2.6Z"/></svg>