<?xml version="1.0" encoding="UTF-8"?><svg id="Capa_1" xmlns="http://www.w3.org/2000/svg" viewBox="0 0 108 107"><defs><style>.cls-1{fill:#bd00ff;}</style></defs><path class="cls-1" d="M38.87,63.25H21.63c-1.86,0-3.38,1.52-3.38,3.38v11.24c0,1.86,1.52,3.38,3.38,3.38h17.24c1.86,0,3.38-1.52,3.38-3.38v-11.24c0-1.86-1.52-3.38-3.38-3.38Zm1.38,14.62c0,.76-.62,1.38-1.38,1.38H21.63c-.76,0-1.38-.62-1.38-1.38v-11.24c0-.76,.62-1.38,1.38-1.38h17.24c.76,0,1.38,.62,1.38,1.38v11.24Z"/><path class="cls-1" d="M30,39h-12v6h12v-6Zm-2,4h-8v-2h8v2Z"/><path class="cls-1" d="M30,47h-12v6h12v-6Zm-2,4h-8v-2h8v2Z"/><path class="cls-1" d="M41,54H18v6h23v-6Zm-2,4H20v-2h19v2Z"/><path class="cls-1" d="M67,59h23v-6h-23v6Zm2-4h19v2h-19v-2Z"/><path class="cls-1" d="M62,54h-16v6h16v-6Zm-2,4h-12v-2h12v2Z"/><path class="cls-1" d="M78,51h12v-6h-12v6Zm2-4h8v1h-8v-1Z"/><path class="cls-1" d="M78,43h12v-6h-12v6Zm2-4h8v2h-8v-2Z"/><path class="cls-1" d="M78,75h12v-6h-12v6Zm2-4h8v2h-8v-2Z"/><path class="cls-1" d="M72,67h18v-6h-18v6Zm2-4h14v2h-14v-2Z"/><path class="cls-1" d="M72,83h18v-6h-18v6Zm2-4h14v2h-14v-2Z"/><path class="cls-1" d="M69,62h-23v6h23v-6Zm-2,4h-19v-2h19v2Z"/><path class="cls-1" d="M46,82h23v-6h-23v6Zm2-4h19v2h-19v-2Z"/><path class="cls-1" d="M76,69h-30v5h30v-5Zm-2,3.33h-26v-1.33h26v1.33Z"/><path class="cls-1" d="M106.6,85.86l-.12-.86h-4.47V24.4c0-2.43-1.98-4.4-4.4-4.4h-24.71l-.71-1.76,4.16-4.17-5.18-6.48-5.28,4.22-6.9-3.45-.26-6.37h-9.42v6.44l-7.14,3.38-4.78-4.07-5.83,5.21,4.31,4.31-.91,2.73H11.4c-2.43,0-4.4,1.97-4.4,4.4v60.6H2v1c0,8.78,1.36,14.05,4.04,15.67,.63,.38,1.26,.51,1.8,.51,.43,0,.81-.08,1.09-.19H99.86l.22-.12c8.14-4.28,6.59-15.55,6.52-16.03Zm-9-63.86c1.32,0,2.4,1.08,2.4,2.4v60.6h-4V28.7c0-1.49-1.21-2.7-2.7-2.7h-12.01v-.5h-6.18l-1.42-3.5h23.9Zm-27.29,65l-.55,1-.55,1-1.1,2-.55,1h-26.02l-.66-1-1.32-2-.66-1-.66-1-.66-1h33.27l-.55,1Zm4.69-2H15V28.7c0-.38,.31-.7,.7-.7h11.3v6h5.35l3.39,7.68-4.16,3.14,5.25,6.56,4.51-3.38h6.05c.3,.82,.77,1.57,1.41,2.21,1.16,1.16,2.69,1.79,4.33,1.79h1.76c1.63,0,3.17-.64,4.33-1.79,.64-.64,1.11-1.39,1.41-2.21h5.08l4.88,3.26,5.86-5.2-4.09-4.33,2.38-7.7,6.57,.31v-6.34h12.01c.38,0,.7,.31,.7,.7v56.3h-19Zm-26-39.12v-4.43l-.47-.29c-.07-.05-7.22-4.64-7.18-13.15,0-.16-.01-.3,0-.46,.02-.53,.08-1.04,.16-1.54,.24-1.5,.74-2.83,1.44-4,.43-.73,.94-1.4,1.51-2,2.48-2.62,6.11-4,9.56-4,2.99,0,6.88,1.17,9.56,4,.56,.59,1.07,1.26,1.5,2,.67,1.14,1.17,2.47,1.43,4,.11,.64,.19,1.29,.21,2,0,0,0,.02,0,.03,.27,10.11-6.76,12.92-7.06,13.04l-.65,.24v4.57s-.01,.08-.01,.12c-.02,.72-.23,1.4-.59,2-.17,.28-.37,.55-.6,.79-.77,.77-1.83,1.21-2.91,1.21h-1.76c-1.08,0-2.15-.44-2.91-1.21-.24-.24-.43-.51-.6-.79-.36-.6-.57-1.28-.59-2,0-.04-.01-.08-.01-.12ZM34.45,13.04l2.95-2.64,4.44,3.78,9.45-4.47V4h5.5l.23,5.63,9.1,4.55,4.72-3.78,2.82,3.52-3.84,3.83,.91,2.24,.81,2,1.62,4,.61,1.5h5.53v4.75l-6.02-.28-3.18,10.3,3.47,3.67-3.16,2.8-4.1-2.74h-5.31s0-.08,0-.12v-3.25c2.01-1.04,7.95-4.97,7.71-14.63,0,0,0-.02,0-.03-.02-.69-.09-1.34-.18-1.97-.22-1.46-.62-2.8-1.18-4-.34-.72-.74-1.38-1.18-2-2.8-3.95-7.52-6-12.16-6s-9.34,2.07-12.16,6c-.45,.62-.85,1.29-1.19,2-.57,1.21-.99,2.54-1.18,4-.06,.48-.11,.96-.13,1.46,0,.18,0,.36,0,.54-.04,8.37,5.9,13.27,7.65,14.53v3.35s0,.08,0,.12h-6.34l-3.49,2.62-2.75-3.44,3.79-2.86-4.56-10.32h-4.65v-5h5.72l.33-1,1.33-4,.67-2,1.09-3.27-3.69-3.69ZM9,24.4c0-1.32,1.08-2.4,2.4-2.4h22.88l-1,3h-6.28v1H15.7c-1.49,0-2.7,1.21-2.7,2.7v56.3h-4V24.4ZM99.36,100H8.49s-.2,.1-.2,.1c-.06,.03-.59,.25-1.25-.17-.89-.57-2.91-2.96-3.03-12.94h31.85l.66,1,.66,1,1.32,2,1.98,3h28.28l1.65-3,1.1-2,.55-1,.55-1h32.11c.17,2.52,.15,9.93-5.34,13Z"/></svg>