<?xml version="1.0" encoding="UTF-8"?><svg id="Capa_1" xmlns="http://www.w3.org/2000/svg" viewBox="0 0 78 111"><defs><style>.cls-1{fill:#ffa800;}</style></defs><path class="cls-1" d="M68.54,2.5H10.46c-4.39,0-7.96,3.57-7.96,7.96V99.54c0,4.39,3.57,7.96,7.96,7.96h58.07c4.39,0,7.96-3.57,7.96-7.96V10.46c0-4.39-3.57-7.96-7.96-7.96Zm4.96,97.04c0,2.74-2.23,4.96-4.96,4.96H10.46c-2.74,0-4.96-2.23-4.96-4.96V10.46c0-2.74,2.23-4.96,4.96-4.96h58.07c2.74,0,4.96,2.23,4.96,4.96V99.54Z"/><path class="cls-1" d="M9.5,76.5h60V16.5H9.5v60Zm3-57h54v54H12.5V19.5Z"/><path class="cls-1" d="M65.75,7c-2.07,0-3.75,1.68-3.75,3.75s1.68,3.75,3.75,3.75,3.75-1.68,3.75-3.75-1.68-3.75-3.75-3.75Zm-.25,3.75c0-.14,.11-.25,.25-.25s.25,.11,.25,.25c0,.28-.5,.28-.5,0Z"/><path class="cls-1" d="M12.75,14.5c2.07,0,3.75-1.68,3.75-3.75s-1.68-3.75-3.75-3.75-3.75,1.68-3.75,3.75,1.68,3.75,3.75,3.75Zm0-4c.14,0,.25,.11,.25,.25,0,.28-.5,.28-.5,0,0-.14,.11-.25,.25-.25Z"/><path class="cls-1" d="M65.75,94c-2.07,0-3.75,1.68-3.75,3.75s1.68,3.75,3.75,3.75,3.75-1.68,3.75-3.75-1.68-3.75-3.75-3.75Zm-.25,3.75c0-.14,.11-.25,.25-.25s.25,.11,.25,.25c0,.28-.5,.28-.5,0Z"/><path class="cls-1" d="M12.75,94c-2.07,0-3.75,1.68-3.75,3.75s1.68,3.75,3.75,3.75,3.75-1.68,3.75-3.75-1.68-3.75-3.75-3.75Zm-.25,3.75c0-.14,.11-.25,.25-.25s.25,.11,.25,.25c0,.28-.5,.28-.5,0Z"/><path class="cls-1" d="M50.77,80.43c-3.63,0-4.9,2.09-5.73,3.47-.69,1.14-.92,1.53-2.27,1.53-1.54,0-1.86-.48-2.57-1.54-.78-1.18-1.97-2.96-4.93-2.96s-4.14,1.78-4.92,2.96c-.7,1.06-1.02,1.54-2.58,1.54-2.76,0-2.99-2.31-3-3.01,0-1.1-.9-1.99-2-1.99s-2,.9-2,2c0,2.81,1.86,7,7,7,3.71,0,5.09-2.09,5.92-3.34,.65-.98,.79-1.16,1.58-1.16s.94,.19,1.6,1.18c.83,1.24,2.21,3.32,5.9,3.32s4.86-2.08,5.69-3.46c.7-1.15,.93-1.54,2.31-1.54,2.76,0,2.99,2.3,3,3,0,1.1,.9,2,2,2s2-.9,2-2c0-2.81-1.86-7-7-7Zm-27.43,4.42c.58,1.19,1.67,2.26,3.55,2.52-1.99-.26-3.02-1.4-3.55-2.52Zm8.68,.14c-.44,.67-.93,1.39-1.79,1.88,.86-.48,1.35-1.2,1.8-1.88,.32-.49,.65-.95,1.07-1.32-.43,.37-.75,.83-1.07,1.32Zm3.84-2.03c1.28,.17,1.89,.88,2.45,1.7-.56-.81-1.17-1.53-2.45-1.7Zm3.54,3.18c.67,.71,1.63,1.28,3.37,1.28-1.74,0-2.7-.57-3.37-1.28Zm7.35-1.21s-.04,.06-.06,.1c.02-.03,.04-.07,.06-.1,.68-1.13,1.33-2.2,3.16-2.45-1.83,.25-2.48,1.32-3.16,2.45Zm4.88-2.45c1.95,.25,2.98,1.34,3.53,2.43-.59-1.16-1.68-2.19-3.53-2.43Zm4.14,4.95h0c0-.05,0-.1,0-.15,0,.08,0,.13,0,.15Z"/><path class="cls-1" d="M50.77,92.43c-3.63,0-4.9,2.09-5.73,3.47-.69,1.14-.92,1.53-2.27,1.53-1.54,0-1.86-.48-2.57-1.54-.78-1.18-1.97-2.96-4.93-2.96s-4.14,1.78-4.92,2.96c-.7,1.06-1.02,1.54-2.58,1.54-2.76,0-2.99-2.31-3-3.01,0-1.1-.9-1.99-2-1.99s-2,.9-2,2c0,2.81,1.86,7,7,7,3.71,0,5.09-2.09,5.92-3.34,.65-.98,.79-1.16,1.58-1.16s.94,.19,1.6,1.18c.83,1.24,2.21,3.32,5.9,3.32s4.86-2.08,5.69-3.46c.7-1.15,.93-1.54,2.31-1.54,2.76,0,2.99,2.3,3,3,0,1.1,.9,2,2,2s2-.9,2-2c0-2.81-1.86-7-7-7Zm-27.43,4.42c.58,1.19,1.67,2.26,3.55,2.52-1.99-.26-3.02-1.4-3.55-2.52Zm8.68,.14c-.44,.67-.93,1.39-1.79,1.88,.86-.48,1.35-1.2,1.8-1.88,.32-.49,.65-.95,1.07-1.32-.43,.37-.75,.83-1.07,1.32Zm3.84-2.03c1.28,.17,1.89,.88,2.45,1.7-.56-.81-1.17-1.53-2.45-1.7Zm3.54,3.18c.67,.71,1.63,1.28,3.37,1.28-1.74,0-2.7-.57-3.37-1.28Zm7.35-1.21s-.04,.06-.06,.1c.02-.03,.04-.07,.06-.1,.68-1.13,1.33-2.2,3.16-2.45-1.83,.25-2.48,1.32-3.16,2.45Zm4.88-2.45c1.95,.25,2.98,1.34,3.53,2.43-.59-1.16-1.68-2.19-3.53-2.43Zm4.14,4.95h0c0-.05,0-.1,0-.15,0,.08,0,.13,0,.15Z"/><path class="cls-1" d="M35.5,21.5H14.5v21h21V21.5Zm-2,19H16.5V23.5h17v17Z"/><path class="cls-1" d="M32.5,24.5h-15v15h15v-15Zm-2,13h-11v-11h11v11Z"/><path class="cls-1" d="M27.5,29.5h-5v5h5v-5Zm-2,3h-1v-1h1v1Z"/><path class="cls-1" d="M43,43h21V22h-21v21Zm2-19h17v17h-17V24Z"/><path class="cls-1" d="M46,40h15v-15h-15v15Zm2-13h11v11h-11v-11Z"/><path class="cls-1" d="M51,35h5v-5h-5v5Zm2-3h1v1h-1v-1Z"/><path class="cls-1" d="M46,68h15v-15h-15v15Zm2-13h11v11h-11v-11Z"/><path class="cls-1" d="M43,71h21v-21h-21v21Zm2-19h17v17h-17v-17Z"/><path class="cls-1" d="M51,63h5v-5h-5v5Zm2-3h1v1h-1v-1Z"/><path class="cls-1" d="M37,29h5v-5h-5v5Zm2-3h1v1h-1v-1Z"/><path class="cls-1" d="M37,40h5v-5h-5v5Zm2-3h1v1h-1v-1Z"/><path class="cls-1" d="M30,56v-11h-5v11h5Zm-3-9h1v7h-1v-7Z"/><path class="cls-1" d="M16,71h9v-5h-9v5Zm2-3h5v1h-5v-1Z"/><path class="cls-1" d="M27,71h12v-5h-12v5Zm2-3h8v1h-8v-1Z"/><path class="cls-1" d="M43,49h21v-5h-21v5Zm2-3h17v1h-17v-1Z"/><path class="cls-1" d="M20,55h3v-5h-3v-5h-5v15h5v-5Zm-2,3h-1v-11h1v5h3v1h-3v5Z"/><path class="cls-1" d="M32.06,53h2.47v5h-11.53v5h16v-15h-6.94v5Zm2-3h2.94v11h-12v-1h11.53v-9h-2.47v-1Z"/></svg>