<?xml version="1.0" encoding="utf-8"?>
<!-- Generator: Adobe Illustrator 27.0.0, SVG Export Plug-In . SVG Version: 6.00 Build 0)  -->
<svg version="1.1" xmlns="http://www.w3.org/2000/svg" xmlns:xlink="http://www.w3.org/1999/xlink" x="0px" y="0px"
	 viewBox="0 0 1080 1080" style="enable-background:new 0 0 1080 1080;" xml:space="preserve">
<style type="text/css">
	.st0{display:none;}
	.st1{display:inline;}
	.st2{fill:#272731;}
	.st3{fill:#434352;}
	.st4{fill:#F1AA1D;}
	.st5{fill:#01B7BF;}
	.st6{fill:#EAE3D6;}
	.st7{fill:#FCF8F0;}
	.st8{fill:#FFFFFF;}
</style>
<g id="Capa_1" class="st0">
	<g class="st1">
		<g>
			<path class="st2" d="M554.8,484.4c0.7,0,1.5,0.1,2.3,0.3c0.8,0.2,1.5,0.7,2.1,1.4c0.7,0.7,1.2,1.5,1.4,2.3
				c0.2,0.8,0.3,1.5,0.3,2.1v98c0,0.6-0.1,1.3-0.3,2.1c-0.2,0.8-0.7,1.6-1.4,2.3c-0.6,0.7-1.3,1.2-2.1,1.4c-0.8,0.2-1.6,0.3-2.3,0.3
				h-13.9c-1.8,0-3.3-0.6-4.4-1.7c-1.2-1.2-1.7-2.6-1.7-4.4v-98c0-1.8,0.6-3.3,1.7-4.4c1.2-1.2,2.6-1.7,4.4-1.7H554.8z"/>
		</g>
		<path class="st2" d="M910.8,484.4c0.7,0,1.5,0.1,2.3,0.3c0.8,0.2,1.5,0.7,2.1,1.4c0.7,0.7,1.2,1.5,1.4,2.3
			c0.2,0.8,0.3,1.5,0.3,2.1v43.3v54.7c0,0.6-0.1,1.3-0.3,2.1c-0.2,0.8-0.7,1.6-1.4,2.3c-0.6,0.7-1.3,1.2-2.1,1.4
			c-0.8,0.2-1.6,0.3-2.3,0.3H897c-1.8,0-3.3-0.6-4.4-1.7c-1.2-1.2-1.7-2.6-1.7-4.4v-98c0-1.8,0.6-3.3,1.7-4.4
			c1.2-1.2,2.6-1.7,4.4-1.7H910.8z"/>
		<path class="st3" d="M990.9,586.8c-2.2-1.7-4.9-3.8-8.1-6.4c-3.2-2.6-6.6-5.4-10.3-8.4c-3.7-3-7.5-6.1-11.4-9.4
			c-3.9-3.3-7.8-6.5-11.6-9.6c-4.5-3.7-9.1-7.5-13.9-11.3c-4.7-3.9-9.6-7.8-14.7-11.8c-0.4-0.4-0.4-0.8,0.2-1.1l67.8-41.6
			c0.1,0,0.2-0.1,0.3-0.2c1.4-1.2,3.3-2,5.7-2.5c0.2-0.1,0.9-0.2,2.2-0.2h20.5c1.4,0,2.5,0.4,3.4,1.1c0.9,0.7,1.5,1.6,1.8,2.7
			c0.3,1.1,0.3,2.2-0.1,3.3c-0.4,1.2-1.1,2.1-2.3,2.8c-5.9,3.7-12.1,7.5-18.5,11.6c-6.5,4-12.5,7.9-18.2,11.4
			c-5.7,3.6-10.6,6.6-14.7,9.1c-4.1,2.5-6.7,4.1-7.7,4.7c-0.5,0.3-0.6,0.7-0.2,1.1l12,9.9c2.6,2.2,6,5,10,8.3
			c4,3.3,8.4,6.9,13.2,10.8c4.7,3.9,9.6,7.9,14.6,12.1c5,4.2,9.7,8.1,14.1,11.9c0.9,0.8,1.5,1.8,1.7,2.9c0.2,1.1,0.2,2.1-0.2,3.1
			c-0.3,0.9-0.9,1.8-1.7,2.4c-0.8,0.7-1.9,1-3.2,1h-19.1c-1.1,0-1.9-0.2-2.5-0.5c-0.7-0.5-1.3-0.9-1.7-1.2c-0.4-0.3-1-0.8-2-1.7
			l-1.4-1.3c-0.5-0.4-1.1-0.9-1.8-1.4C992.5,588.2,991.7,587.6,990.9,586.8z"/>
		<g>
			<path class="st4" d="M100,572c11.2,0,19.6,8.2,19.6,22.8c0-14.6,8.4-22.8,19.6-22.8c-11.2,0-19.6-8.2-19.6-22.8
				C119.6,563.8,111.2,572,100,572z"/>
		</g>
		<g>
			<path class="st5" d="M29.9,507.6c-5.8,0-10.6-4.7-10.6-10.6c0-5.8,4.7-10.6,10.6-10.6s10.6,4.7,10.6,10.6
				C40.5,502.9,35.7,507.6,29.9,507.6z M29.9,489.9c-3.9,0-7.2,3.2-7.2,7.2c0,3.9,3.2,7.2,7.2,7.2c3.9,0,7.2-3.2,7.2-7.2
				C37.1,493.1,33.9,489.9,29.9,489.9z"/>
		</g>
		<g>
			<path class="st5" d="M1051.5,549.1c-5.8,0-10.6-4.7-10.6-10.6s4.7-10.6,10.6-10.6c5.8,0,10.6,4.7,10.6,10.6
				S1057.3,549.1,1051.5,549.1z M1051.5,531.4c-3.9,0-7.2,3.2-7.2,7.2c0,3.9,3.2,7.2,7.2,7.2c3.9,0,7.2-3.2,7.2-7.2
				C1058.6,534.6,1055.4,531.4,1051.5,531.4z"/>
		</g>
		<g>
			<path class="st3" d="M478.1,594.3l-0.3-32.4l-79.7-74.8c-0.1-0.1-0.2-0.2-0.3-0.2c-0.5-0.5-1.2-1.1-2-1.7c-0.8-0.6-2-0.9-3.5-0.9
				H375c-1.8,0-3.3,0.6-4.4,1.7c-1.2,1.2-1.7,2.6-1.7,4.4l0.1,2.1l26.1,24.5v-0.1l79.8,74.9l0.3,0.3c0.5,0.4,1.2,0.9,2,1.5
				c0.7,0.5,1.6,0.8,2.8,0.8C479.2,594.6,478.6,594.5,478.1,594.3z"/>
			<path class="st3" d="M480.6,594.7h0.1c-0.1,0-0.3,0-0.4,0C480.4,594.7,480.5,594.7,480.6,594.7z"/>
		</g>
		<g>
			<path class="st3" d="M344.3,572.3c-1.2-1.2-2.6-1.7-4.4-1.7H247c-1.2,0-2.1-0.1-2.9-0.2c0,0,0,0,0,0h-30.7
				c0.9,6.9,3.3,12.4,7.4,16.5c5.2,5.2,12.7,7.8,22.5,7.8h96.6c0.6,0,1.3-0.1,2.1-0.3c0.8-0.2,1.5-0.7,2.3-1.4
				c0.6-0.7,1.1-1.5,1.3-2.3c0.3-0.8,0.4-1.5,0.4-2.1v-11.8C346,575,345.4,573.5,344.3,572.3z"/>
		</g>
		<g>
			<path class="st3" d="M668.8,508.5h49.2c1.8,0,3.3-0.6,4.5-1.7c1.2-1.1,1.8-2.6,1.8-4.5v-11.8c0-1.5-0.6-2.9-1.7-4.4
				c-0.7-0.6-1.5-1.1-2.3-1.3c-0.8-0.3-1.6-0.4-2.3-0.4H593.6c-1.8,0-3.3,0.6-4.4,1.7c-1.2,1.2-1.7,2.6-1.7,4.4v11.8
				c0,0.7,0.1,1.5,0.3,2.3c0.2,0.8,0.7,1.6,1.4,2.3c0.7,0.6,1.5,1.1,2.3,1.3c0.8,0.2,1.5,0.3,2.1,0.3h49.3v0L668.8,508.5"/>
		</g>
		<g>
			<g>
				<path class="st3" d="M197,585.9l-63-97.2c-0.7-1.3-1.7-2.3-2.8-3.1c-1.1-0.8-2.4-1.2-3.9-1.2h-15.1c-1.3,0-2.4,0.3-3.3,0.9
					c-0.8,0.5-1.5,1.1-2,1.7c-0.5,0.6-0.9,1.1-1.1,1.5l-1.1,1.7l15.7,24.3c-0.1-0.1-0.2-0.2-0.3-0.2c0.1,0.1,0.2,0.1,0.3,0.2
					l40.5,62.7l5.4,8l3.3,5.2c0.2,0.4,0.6,1,1.1,1.7c0.5,0.7,1.3,1.3,2.2,1.8c0.8,0.5,1.9,0.8,3.2,0.8h16.2c0.8,0,1.9-0.3,3.3-0.8
					c1.7-1.3,2.5-2.9,2.5-4.9C197.9,587.8,197.5,586.7,197,585.9z"/>
			</g>
			<path class="st2" d="M104.7,490.2l-62.1,95.6c-0.2,0.5-0.4,1.1-0.7,1.6c-0.3,0.5-0.4,1.1-0.4,1.7c0,2,0.8,3.6,2.5,4.9
				c1.4,0.5,2.5,0.8,3.3,0.8h16.2c0.4,0,1.5-0.3,3.3-0.8c0.8-0.5,1.5-1.1,2-1.7c0.5-0.6,0.9-1.2,1.3-1.7l8.7-13.2l15.1-23.8
				l25.2-38.9c0.4-0.4,0.8-0.4,1.3,0L104.7,490.2z"/>
		</g>
		<path class="st2" d="M244.1,570.4c-0.5-0.1-0.9-0.2-1.3-0.3c-0.9-0.3-1.6-0.7-2.1-1.1c-0.4-0.4-0.8-1.1-1.1-2
			c-0.3-0.9-0.5-2.3-0.5-4.1v-72.3c0-0.6-0.1-1.3-0.3-2.1c-0.2-0.8-0.7-1.5-1.4-2.3c-0.6-0.7-1.3-1.2-2.1-1.4
			c-0.8-0.2-1.5-0.3-2.3-0.3h-13.8c-0.7,0-1.5,0.1-2.3,0.4c-0.8,0.3-1.5,0.7-2.3,1.3c-1.1,1.5-1.7,2.9-1.7,4.4v73.8
			c0,2.2,0.1,4.2,0.4,6.1H244.1z"/>
		<path class="st2" d="M368.9,492.7v95.9c0,1.8,0.6,3.3,1.7,4.4c1.2,1.2,2.6,1.7,4.4,1.7h13.9c0.7,0,1.5-0.1,2.3-0.3
			c0.8-0.2,1.5-0.7,2.1-1.4c0.7-0.7,1.2-1.5,1.4-2.3c0.2-0.8,0.3-1.5,0.3-2.1v-71.2L368.9,492.7z"/>
		<path class="st2" d="M502.3,486.1c-1.2-1.2-2.7-1.7-4.5-1.7h-13.8c-1.8,0-3.2,0.6-4.4,1.7c-1.1,1.2-1.7,2.6-1.7,4.4v71.4l-0.2-0.1
			l0.3,32.5c0.7,0.3,1.6,0.4,2.6,0.4h17.2c0.7,0,1.5-0.1,2.4-0.3c0.8-0.2,1.6-0.7,2.2-1.4c0.7-0.6,1.2-1.3,1.4-2.1
			c0.2-0.8,0.3-1.5,0.3-2.3v-98C504.1,488.8,503.5,487.3,502.3,486.1z"/>
		<path class="st2" d="M642.9,508.5v80c0,0.6,0.1,1.3,0.3,2.1c0.2,0.8,0.7,1.6,1.4,2.3c0.6,0.7,1.3,1.2,2.1,1.4
			c0.8,0.2,1.5,0.3,2.3,0.3h13.6c0.7,0,1.5-0.1,2.3-0.3c0.8-0.2,1.5-0.7,2.1-1.4c0.7-0.7,1.2-1.5,1.4-2.3c0.2-0.8,0.3-1.5,0.3-2.1
			v-80H642.9z"/>
		<g>
			<g>
				<path class="st3" d="M863.6,585.9l-63-97.2c-0.7-1.3-1.7-2.3-2.8-3.1c-1.1-0.8-2.4-1.2-3.9-1.2h-15.1c-1.3,0-2.4,0.3-3.3,0.9
					c-0.8,0.5-1.5,1.1-2,1.7c-0.5,0.6-0.9,1.1-1.1,1.5l-1.1,1.7l15.7,24.3c-0.1-0.1-0.2-0.2-0.3-0.2c0.1,0.1,0.2,0.1,0.3,0.2
					l40.5,62.7l5.4,8l3.3,5.2c0.2,0.4,0.6,1,1.1,1.7c0.5,0.7,1.3,1.3,2.2,1.8c0.8,0.5,1.9,0.8,3.2,0.8h16.2c0.8,0,1.9-0.3,3.3-0.8
					c1.7-1.3,2.5-2.9,2.5-4.9C864.5,587.8,864.1,586.7,863.6,585.9z"/>
			</g>
			<path class="st2" d="M771.2,490.2l-62.1,95.6c-0.2,0.5-0.4,1.1-0.7,1.6c-0.3,0.5-0.4,1.1-0.4,1.7c0,2,0.8,3.6,2.5,4.9
				c1.4,0.5,2.5,0.8,3.3,0.8h16.2c0.4,0,1.5-0.3,3.3-0.8c0.8-0.5,1.5-1.1,2-1.7c0.5-0.6,0.9-1.2,1.3-1.7l8.7-13.2l15.1-23.8
				l25.2-38.9c0.4-0.4,0.8-0.4,1.3,0L771.2,490.2z"/>
		</g>
	</g>
</g>
<g id="Capa_2" class="st0">
	<g class="st1">
		<g>
			<path class="st6" d="M554.8,484.4c0.7,0,1.5,0.1,2.3,0.3c0.8,0.2,1.5,0.7,2.1,1.4c0.7,0.7,1.2,1.5,1.4,2.3
				c0.2,0.8,0.3,1.5,0.3,2.1v98c0,0.6-0.1,1.3-0.3,2.1c-0.2,0.8-0.7,1.6-1.4,2.3c-0.6,0.7-1.3,1.2-2.1,1.4c-0.8,0.2-1.6,0.3-2.3,0.3
				h-13.9c-1.8,0-3.3-0.6-4.4-1.7c-1.2-1.2-1.7-2.6-1.7-4.4v-98c0-1.8,0.6-3.3,1.7-4.4c1.2-1.2,2.6-1.7,4.4-1.7H554.8z"/>
		</g>
		<path class="st6" d="M910.7,484.4c0.7,0,1.5,0.1,2.3,0.3c0.8,0.2,1.5,0.7,2.1,1.4c0.7,0.7,1.2,1.5,1.4,2.3
			c0.2,0.8,0.3,1.5,0.3,2.1v43.3v54.7c0,0.6-0.1,1.3-0.3,2.1c-0.2,0.8-0.7,1.6-1.4,2.3c-0.6,0.7-1.3,1.2-2.1,1.4
			c-0.8,0.2-1.6,0.3-2.3,0.3h-13.9c-1.8,0-3.3-0.6-4.4-1.7c-1.2-1.2-1.7-2.6-1.7-4.4v-98c0-1.8,0.6-3.3,1.7-4.4
			c1.2-1.2,2.6-1.7,4.4-1.7H910.7z"/>
		<path class="st7" d="M990.7,586.8c-2.2-1.7-4.9-3.8-8.1-6.4c-3.2-2.6-6.6-5.4-10.3-8.3c-3.7-3-7.5-6.1-11.4-9.4
			c-3.9-3.3-7.8-6.5-11.6-9.6c-4.5-3.7-9.1-7.5-13.9-11.3c-4.7-3.9-9.6-7.8-14.6-11.8c-0.4-0.4-0.4-0.8,0.2-1.1l67.7-41.6
			c0.1,0,0.2-0.1,0.3-0.2c1.4-1.2,3.3-2,5.7-2.5c0.2-0.1,0.9-0.2,2.2-0.2h20.5c1.4,0,2.5,0.4,3.4,1.1c0.9,0.7,1.5,1.6,1.8,2.7
			c0.3,1.1,0.3,2.2-0.1,3.3c-0.4,1.2-1.1,2.1-2.3,2.8c-5.9,3.7-12.1,7.5-18.5,11.6c-6.5,4-12.5,7.9-18.2,11.4
			c-5.7,3.6-10.6,6.6-14.6,9.1c-4.1,2.5-6.7,4.1-7.7,4.7c-0.5,0.3-0.6,0.7-0.2,1.1l12,9.9c2.6,2.2,6,5,10,8.3
			c4,3.3,8.4,6.9,13.2,10.8c4.7,3.9,9.6,7.9,14.6,12.1c5,4.1,9.7,8.1,14.1,11.9c0.9,0.8,1.5,1.8,1.7,2.9c0.2,1.1,0.2,2.1-0.2,3.1
			c-0.3,0.9-0.9,1.8-1.7,2.4c-0.8,0.7-1.9,1-3.2,1h-19.1c-1.1,0-1.9-0.2-2.5-0.5c-0.7-0.5-1.3-0.9-1.7-1.2c-0.4-0.3-1-0.8-2-1.7
			l-1.4-1.3c-0.5-0.4-1.1-0.9-1.8-1.4C992.3,588.2,991.5,587.6,990.7,586.8z"/>
		<g>
			<path class="st4" d="M100.2,572c11.2,0,19.6,8.2,19.6,22.7c0-14.6,8.4-22.7,19.6-22.7c-11.2,0-19.6-8.2-19.6-22.7
				C119.8,563.8,111.4,572,100.2,572z"/>
		</g>
		<g>
			<path class="st5" d="M30.2,507.6c-5.8,0-10.6-4.7-10.6-10.6c0-5.8,4.7-10.6,10.6-10.6s10.6,4.7,10.6,10.6
				C40.7,502.9,36,507.6,30.2,507.6z M30.2,489.9c-3.9,0-7.2,3.2-7.2,7.2c0,3.9,3.2,7.2,7.2,7.2c3.9,0,7.2-3.2,7.2-7.2
				C37.3,493.1,34.1,489.9,30.2,489.9z"/>
		</g>
		<g>
			<path class="st5" d="M1051.2,549.1c-5.8,0-10.6-4.7-10.6-10.6c0-5.8,4.7-10.6,10.6-10.6c5.8,0,10.6,4.7,10.6,10.6
				C1061.8,544.4,1057.1,549.1,1051.2,549.1z M1051.2,531.4c-3.9,0-7.2,3.2-7.2,7.2s3.2,7.2,7.2,7.2c3.9,0,7.2-3.2,7.2-7.2
				S1055.2,531.4,1051.2,531.4z"/>
		</g>
		<g>
			<path class="st7" d="M478.1,594.3l-0.3-32.4l-79.7-74.8c-0.1-0.1-0.2-0.2-0.3-0.2c-0.5-0.5-1.2-1.1-2-1.7c-0.8-0.6-2-0.9-3.5-0.9
				H375c-1.8,0-3.3,0.6-4.4,1.7c-1.2,1.2-1.7,2.6-1.7,4.4l0.1,2.1l26,24.5v-0.1l79.7,74.8l0.3,0.3c0.5,0.4,1.2,0.9,2,1.5
				c0.7,0.5,1.6,0.7,2.8,0.8C479.2,594.6,478.6,594.5,478.1,594.3z"/>
			<path class="st3" d="M480.6,594.7h0.1c-0.1,0-0.3,0-0.4,0C480.4,594.7,480.5,594.7,480.6,594.7z"/>
		</g>
		<g>
			<path class="st7" d="M344.4,572.3c-1.2-1.2-2.6-1.7-4.4-1.7h-92.8c-1.2,0-2.1-0.1-2.9-0.2c0,0,0,0,0,0h-30.7
				c0.9,6.9,3.3,12.4,7.4,16.5c5.2,5.2,12.7,7.8,22.5,7.8H340c0.6,0,1.3-0.1,2.1-0.3c0.8-0.2,1.5-0.7,2.3-1.4
				c0.6-0.7,1.1-1.5,1.3-2.3c0.3-0.8,0.4-1.5,0.4-2.1v-11.8C346.1,574.9,345.5,573.5,344.4,572.3z"/>
		</g>
		<g>
			<path class="st7" d="M668.7,508.5h49.1c1.8,0,3.3-0.6,4.5-1.7c1.2-1.1,1.8-2.6,1.8-4.5v-11.8c0-1.5-0.6-2.9-1.7-4.4
				c-0.7-0.6-1.5-1.1-2.3-1.3c-0.8-0.3-1.6-0.4-2.3-0.4H593.6c-1.8,0-3.3,0.6-4.4,1.7c-1.2,1.2-1.7,2.6-1.7,4.4v11.8
				c0,0.7,0.1,1.5,0.3,2.3c0.2,0.8,0.7,1.6,1.4,2.3c0.7,0.6,1.5,1.1,2.3,1.3c0.8,0.2,1.5,0.3,2.1,0.3h49.3v0L668.7,508.5"/>
		</g>
		<g>
			<g>
				<path class="st6" d="M197.2,585.9l-63-97.2c-0.7-1.3-1.7-2.3-2.8-3.1c-1.1-0.8-2.4-1.2-3.9-1.2h-15.1c-1.3,0-2.4,0.3-3.3,0.9
					c-0.8,0.5-1.5,1.1-2,1.7c-0.5,0.6-0.9,1.1-1.1,1.5l-1.1,1.7l15.7,24.3c-0.1-0.1-0.2-0.2-0.3-0.2c0.1,0.1,0.2,0.1,0.3,0.2
					l40.5,62.7l5.4,8l3.3,5.2c0.2,0.4,0.6,1,1.1,1.7c0.5,0.7,1.3,1.3,2.2,1.8c0.8,0.5,1.9,0.8,3.2,0.8h16.2c0.8,0,1.9-0.3,3.3-0.8
					c1.7-1.3,2.5-2.9,2.5-4.9C198,587.8,197.7,586.7,197.2,585.9z"/>
			</g>
			<path class="st7" d="M104.9,490.2l-62.1,95.5c-0.2,0.5-0.4,1.1-0.7,1.6c-0.3,0.5-0.4,1.1-0.4,1.7c0,2,0.8,3.6,2.5,4.9
				c1.4,0.5,2.5,0.8,3.3,0.8h16.2c0.4,0,1.5-0.3,3.3-0.8c0.8-0.5,1.5-1.1,2-1.7c0.5-0.6,0.9-1.2,1.3-1.7l8.7-13.2l15.1-23.8
				l25.2-38.9c0.4-0.4,0.8-0.4,1.3,0L104.9,490.2z"/>
		</g>
		<path class="st6" d="M244.3,570.4c-0.5-0.1-0.9-0.2-1.3-0.3c-0.9-0.3-1.6-0.7-2.1-1.1c-0.4-0.4-0.8-1.1-1.1-2
			c-0.3-0.9-0.5-2.3-0.5-4.1v-72.3c0-0.6-0.1-1.3-0.3-2.1c-0.2-0.8-0.7-1.5-1.4-2.3c-0.6-0.7-1.3-1.2-2.1-1.4
			c-0.8-0.2-1.5-0.3-2.3-0.3h-13.8c-0.7,0-1.5,0.1-2.3,0.4c-0.8,0.3-1.5,0.7-2.3,1.3c-1.1,1.5-1.7,2.9-1.7,4.4v73.7
			c0,2.2,0.1,4.2,0.4,6.1H244.3z"/>
		<path class="st6" d="M369,492.7v95.8c0,1.8,0.6,3.3,1.7,4.4c1.2,1.2,2.6,1.7,4.4,1.7H389c0.7,0,1.5-0.1,2.3-0.3
			c0.8-0.2,1.5-0.7,2.1-1.4c0.7-0.7,1.2-1.5,1.4-2.3c0.2-0.8,0.3-1.5,0.3-2.1v-71.2L369,492.7z"/>
		<path class="st6" d="M502.3,486.2c-1.2-1.2-2.7-1.7-4.5-1.7h-13.8c-1.8,0-3.2,0.6-4.4,1.7c-1.1,1.2-1.7,2.6-1.7,4.4v71.4l-0.2-0.1
			l0.3,32.5c0.7,0.3,1.6,0.4,2.6,0.4h17.1c0.7,0,1.5-0.1,2.4-0.3c0.8-0.2,1.6-0.7,2.2-1.4c0.7-0.6,1.2-1.3,1.4-2.1
			c0.2-0.8,0.3-1.5,0.3-2.3v-98C504.2,488.8,503.5,487.3,502.3,486.2z"/>
		<path class="st6" d="M642.9,508.5v80c0,0.6,0.1,1.3,0.3,2.1c0.2,0.8,0.7,1.6,1.4,2.3c0.6,0.7,1.3,1.2,2.1,1.4
			c0.8,0.2,1.5,0.3,2.3,0.3h13.5c0.7,0,1.5-0.1,2.3-0.3c0.8-0.2,1.5-0.7,2.1-1.4c0.7-0.7,1.2-1.5,1.4-2.3c0.2-0.8,0.3-1.5,0.3-2.1
			v-80H642.9z"/>
		<g>
			<g>
				<path class="st6" d="M863.4,585.9l-63-97.2c-0.7-1.3-1.7-2.3-2.8-3.1c-1.1-0.8-2.4-1.2-3.9-1.2h-15.1c-1.3,0-2.4,0.3-3.3,0.9
					c-0.8,0.5-1.5,1.1-2,1.7c-0.5,0.6-0.9,1.1-1.1,1.5l-1.1,1.7l15.7,24.3c-0.1-0.1-0.2-0.2-0.3-0.2c0.1,0.1,0.2,0.1,0.3,0.2
					l40.5,62.7l5.4,8l3.3,5.2c0.2,0.4,0.6,1,1.1,1.7c0.5,0.7,1.3,1.3,2.2,1.8c0.8,0.5,1.9,0.8,3.2,0.8h16.2c0.8,0,1.9-0.3,3.3-0.8
					c1.7-1.3,2.5-2.9,2.5-4.9C864.3,587.8,863.9,586.7,863.4,585.9z"/>
			</g>
			<path class="st7" d="M771.1,490.2L709,585.7c-0.2,0.5-0.4,1.1-0.7,1.6c-0.3,0.5-0.4,1.1-0.4,1.7c0,2,0.8,3.6,2.5,4.9
				c1.4,0.5,2.5,0.8,3.3,0.8H730c0.4,0,1.5-0.3,3.3-0.8c0.8-0.5,1.5-1.1,2-1.7c0.5-0.6,0.9-1.2,1.3-1.7l8.7-13.2l15.1-23.8
				l25.2-38.9c0.4-0.4,0.8-0.4,1.3,0L771.1,490.2z"/>
		</g>
	</g>
</g>
<g id="Capa_3">
	<g>
		<g>
			<path class="st2" d="M554,484.5c0.7,0,1.5,0.1,2.3,0.3c0.8,0.2,1.5,0.7,2.1,1.4c0.7,0.7,1.2,1.5,1.4,2.3c0.2,0.8,0.3,1.5,0.3,2.1
				v97.8c0,0.6-0.1,1.3-0.3,2.1c-0.2,0.8-0.7,1.5-1.4,2.3c-0.6,0.7-1.3,1.2-2.1,1.4c-0.8,0.2-1.5,0.3-2.3,0.3h-13.8
				c-1.8,0-3.3-0.6-4.4-1.7c-1.2-1.2-1.7-2.6-1.7-4.4v-97.8c0-1.8,0.6-3.2,1.7-4.4c1.2-1.2,2.6-1.7,4.4-1.7H554z"/>
		</g>
		<path class="st2" d="M909.3,484.5c0.7,0,1.5,0.1,2.3,0.3c0.8,0.2,1.5,0.7,2.1,1.4c0.7,0.7,1.2,1.5,1.4,2.3
			c0.2,0.8,0.3,1.5,0.3,2.1v43.3v54.6c0,0.6-0.1,1.3-0.3,2.1c-0.2,0.8-0.7,1.5-1.4,2.3c-0.6,0.7-1.3,1.2-2.1,1.4
			c-0.8,0.2-1.5,0.3-2.3,0.3h-13.8c-1.8,0-3.3-0.6-4.4-1.7c-1.2-1.2-1.7-2.6-1.7-4.4v-97.8c0-1.8,0.6-3.2,1.7-4.4
			c1.2-1.2,2.6-1.7,4.4-1.7H909.3z"/>
		<path class="st3" d="M989.3,586.7c-2.2-1.7-4.9-3.8-8.1-6.4c-3.2-2.6-6.6-5.3-10.3-8.3c-3.7-3-7.5-6.1-11.4-9.4
			c-3.9-3.2-7.8-6.4-11.6-9.6c-4.5-3.7-9.1-7.4-13.8-11.3c-4.7-3.9-9.6-7.8-14.6-11.8c-0.4-0.4-0.4-0.8,0.2-1.1l67.6-41.5
			c0.1,0,0.2-0.1,0.3-0.2c1.4-1.2,3.2-2,5.7-2.5c0.2-0.1,0.9-0.2,2.2-0.2h20.4c1.4,0,2.5,0.4,3.4,1.1c0.9,0.7,1.5,1.6,1.8,2.7
			c0.3,1,0.3,2.2-0.1,3.3c-0.4,1.2-1.1,2.1-2.3,2.8c-5.9,3.7-12,7.5-18.5,11.6c-6.4,4-12.5,7.8-18.2,11.4
			c-5.7,3.6-10.5,6.6-14.6,9.1c-4.1,2.5-6.7,4.1-7.7,4.7c-0.5,0.3-0.6,0.7-0.2,1.1l12,9.9c2.6,2.2,5.9,5,10,8.3
			c4,3.3,8.4,6.9,13.1,10.8c4.7,3.9,9.6,7.9,14.5,12c5,4.1,9.7,8.1,14.1,11.9c0.9,0.8,1.5,1.8,1.7,2.9c0.2,1.1,0.2,2.1-0.2,3.1
			c-0.3,0.9-0.9,1.8-1.7,2.4c-0.8,0.7-1.9,1-3.1,1h-19c-1,0-1.9-0.2-2.5-0.5c-0.7-0.5-1.3-0.9-1.7-1.2c-0.4-0.3-1-0.8-2-1.7
			l-1.4-1.3c-0.5-0.4-1.1-0.9-1.8-1.4C990.9,588.1,990.1,587.5,989.3,586.7z"/>
		<g>
			<path class="st4" d="M100.1,571.9c11.2,0,19.6,8.2,19.6,22.7c0-14.6,8.4-22.7,19.6-22.7c-11.2,0-19.6-8.2-19.6-22.7
				C119.7,563.7,111.3,571.9,100.1,571.9z"/>
		</g>
		<g>
			<path class="st8" d="M30.1,507.7c-5.8,0-10.5-4.7-10.5-10.5s4.7-10.5,10.5-10.5s10.5,4.7,10.5,10.5S36,507.7,30.1,507.7z
				 M30.1,490c-3.9,0-7.1,3.2-7.1,7.1c0,3.9,3.2,7.1,7.1,7.1c3.9,0,7.1-3.2,7.1-7.1C37.3,493.2,34.1,490,30.1,490z"/>
		</g>
		<g>
			<path class="st8" d="M1049.7,549.1c-5.8,0-10.5-4.7-10.5-10.5c0-5.8,4.7-10.5,10.5-10.5c5.8,0,10.5,4.7,10.5,10.5
				C1060.3,544.4,1055.5,549.1,1049.7,549.1z M1049.7,531.4c-3.9,0-7.1,3.2-7.1,7.1c0,3.9,3.2,7.1,7.1,7.1c3.9,0,7.1-3.2,7.1-7.1
				C1056.9,534.6,1053.7,531.4,1049.7,531.4z"/>
		</g>
		<g>
			<path class="st3" d="M477.4,594.2l-0.3-32.3l-79.5-74.7c-0.1-0.1-0.2-0.2-0.3-0.2c-0.5-0.5-1.2-1.1-2-1.7c-0.8-0.6-2-0.9-3.5-0.9
				h-17.3c-1.8,0-3.3,0.6-4.4,1.7c-1.2,1.2-1.7,2.6-1.7,4.4l0.1,2.1l26,24.5v-0.1l79.6,74.7l0.3,0.3c0.5,0.4,1.2,0.9,2,1.5
				c0.7,0.5,1.6,0.7,2.8,0.8C478.6,594.5,478,594.4,477.4,594.2z"/>
			<path class="st3" d="M479.9,594.6h0.1c-0.1,0-0.3,0-0.4,0C479.7,594.6,479.8,594.6,479.9,594.6z"/>
		</g>
		<g>
			<path class="st3" d="M343.9,572.3c-1.2-1.2-2.6-1.7-4.4-1.7h-92.6c-1.2,0-2.1-0.1-2.9-0.2c0,0,0,0,0,0h-30.7
				c0.9,6.9,3.3,12.4,7.4,16.5c5.2,5.2,12.6,7.8,22.5,7.8h96.4c0.6,0,1.3-0.1,2.1-0.3c0.8-0.2,1.5-0.7,2.3-1.4
				c0.6-0.7,1.1-1.5,1.3-2.3c0.3-0.8,0.4-1.5,0.4-2.1v-11.8C345.6,574.9,345,573.4,343.9,572.3z"/>
		</g>
		<g>
			<path class="st3" d="M667.7,508.6h49.1c1.8,0,3.3-0.6,4.5-1.7c1.2-1.1,1.8-2.6,1.8-4.5v-11.8c0-1.5-0.6-2.9-1.7-4.4
				c-0.7-0.6-1.5-1.1-2.3-1.3c-0.8-0.3-1.5-0.4-2.3-0.4H592.7c-1.8,0-3.3,0.6-4.4,1.7c-1.2,1.2-1.7,2.6-1.7,4.4v11.8
				c0,0.7,0.1,1.5,0.3,2.3c0.2,0.8,0.7,1.5,1.4,2.3c0.7,0.6,1.5,1,2.3,1.3c0.8,0.2,1.5,0.3,2.1,0.3H642v0L667.7,508.6"/>
		</g>
		<g>
			<g>
				<path class="st3" d="M196.9,585.8l-62.9-97c-0.7-1.3-1.7-2.3-2.8-3.1c-1.1-0.8-2.4-1.2-3.9-1.2h-15.1c-1.3,0-2.4,0.3-3.3,0.9
					c-0.8,0.5-1.5,1.1-2,1.7c-0.5,0.6-0.9,1.1-1.1,1.5l-1.1,1.7l15.7,24.3c-0.1-0.1-0.2-0.2-0.3-0.2c0.1,0.1,0.2,0.1,0.3,0.2
					l40.4,62.6l5.3,8l3.3,5.2c0.2,0.4,0.6,1,1.1,1.7c0.5,0.7,1.3,1.3,2.2,1.8c0.8,0.5,1.9,0.8,3.1,0.8h16.2c0.8,0,1.9-0.3,3.3-0.8
					c1.7-1.3,2.5-2.9,2.5-4.9C197.8,587.7,197.4,586.6,196.9,585.8z"/>
			</g>
			<path class="st2" d="M104.7,490.3l-62,95.4c-0.2,0.5-0.4,1-0.7,1.6c-0.3,0.5-0.4,1.1-0.4,1.7c0,2,0.8,3.6,2.5,4.9
				c1.4,0.5,2.5,0.8,3.3,0.8h16.2c0.4,0,1.5-0.3,3.3-0.8c0.8-0.5,1.5-1.1,2-1.7c0.5-0.6,0.9-1.2,1.3-1.7l8.7-13.2L94,553.4
				l25.2-38.8c0.4-0.4,0.8-0.4,1.3,0L104.7,490.3z"/>
		</g>
		<path class="st2" d="M243.9,570.4c-0.5-0.1-0.9-0.2-1.3-0.3c-0.9-0.3-1.6-0.7-2.1-1.1c-0.4-0.4-0.8-1.1-1.1-2
			c-0.3-0.9-0.5-2.3-0.5-4.1v-72.2c0-0.6-0.1-1.3-0.3-2.1c-0.2-0.8-0.7-1.5-1.4-2.3c-0.6-0.7-1.3-1.2-2.1-1.4
			c-0.8-0.2-1.5-0.3-2.3-0.3h-13.8c-0.7,0-1.5,0.1-2.3,0.4c-0.8,0.3-1.5,0.7-2.3,1.3c-1.1,1.5-1.7,2.9-1.7,4.4v73.6
			c0,2.1,0.1,4.2,0.4,6.1H243.9z"/>
		<path class="st2" d="M368.5,492.8v95.7c0,1.8,0.6,3.3,1.7,4.4c1.2,1.2,2.6,1.7,4.4,1.7h13.8c0.7,0,1.5-0.1,2.3-0.3
			c0.8-0.2,1.5-0.7,2.1-1.4c0.7-0.7,1.2-1.5,1.4-2.3c0.2-0.8,0.3-1.5,0.3-2.1v-71.1L368.5,492.8z"/>
		<path class="st2" d="M501.6,486.2c-1.2-1.2-2.7-1.7-4.5-1.7h-13.8c-1.8,0-3.2,0.6-4.4,1.7c-1.1,1.2-1.7,2.6-1.7,4.4v71.3l-0.2-0.1
			l0.3,32.4c0.7,0.3,1.6,0.4,2.6,0.4h17.1c0.7,0,1.5-0.1,2.4-0.3c0.8-0.2,1.6-0.7,2.2-1.4c0.7-0.6,1.2-1.3,1.4-2.1
			c0.2-0.8,0.3-1.5,0.3-2.3v-97.8C503.4,488.9,502.8,487.4,501.6,486.2z"/>
		<path class="st2" d="M642,508.6v79.9c0,0.6,0.1,1.3,0.3,2.1c0.2,0.8,0.7,1.5,1.4,2.3c0.6,0.7,1.3,1.2,2.1,1.4
			c0.8,0.2,1.5,0.3,2.3,0.3h13.5c0.7,0,1.5-0.1,2.3-0.3c0.8-0.2,1.5-0.7,2.1-1.4c0.7-0.7,1.2-1.5,1.4-2.3c0.2-0.8,0.3-1.5,0.3-2.1
			v-79.9H642z"/>
		<g>
			<g>
				<path class="st3" d="M862.2,585.8l-62.9-97c-0.7-1.3-1.7-2.3-2.8-3.1c-1.1-0.8-2.4-1.2-3.9-1.2h-15.1c-1.3,0-2.4,0.3-3.3,0.9
					c-0.8,0.5-1.5,1.1-2,1.7c-0.5,0.6-0.9,1.1-1.1,1.5l-1.1,1.7l15.7,24.3c-0.1-0.1-0.2-0.2-0.3-0.2c0.1,0.1,0.2,0.1,0.3,0.2
					l40.4,62.6l5.3,8l3.3,5.2c0.2,0.4,0.6,1,1.1,1.7c0.5,0.7,1.3,1.3,2.2,1.8c0.8,0.5,1.9,0.8,3.1,0.8h16.2c0.8,0,1.9-0.3,3.3-0.8
					c1.7-1.3,2.5-2.9,2.5-4.9C863,587.7,862.7,586.6,862.2,585.8z"/>
			</g>
			<path class="st2" d="M770,490.3l-62,95.4c-0.2,0.5-0.4,1-0.7,1.6c-0.3,0.5-0.4,1.1-0.4,1.7c0,2,0.8,3.6,2.5,4.9
				c1.4,0.5,2.5,0.8,3.3,0.8h16.2c0.4,0,1.5-0.3,3.3-0.8c0.8-0.5,1.5-1.1,2-1.7c0.5-0.6,0.9-1.2,1.3-1.7l8.7-13.2l15.1-23.7
				l25.2-38.8c0.4-0.4,0.8-0.4,1.3,0L770,490.3z"/>
		</g>
	</g>
</g>
</svg>
