<?xml version="1.0" encoding="UTF-8"?><svg id="Capa_1" xmlns="http://www.w3.org/2000/svg" viewBox="0 0 84 109"><defs><style>.cls-1{fill:#00ffe4;}</style></defs><path class="cls-1" d="M83.03,22.64L61.23,1.91c-.28-.27-.65-.41-1.03-.41H9.9C5.27,1.5,1.5,5.27,1.5,9.9V98.1c0,4.63,3.77,8.4,8.4,8.4H75.1c4.63,0,8.4-3.77,8.4-8.4V23.73c0-.41-.17-.8-.47-1.09Zm-4.78-.14h-16.76V6.51l16.76,15.99Zm2.24,75.6c0,2.98-2.42,5.4-5.4,5.4H9.9c-2.98,0-5.4-2.42-5.4-5.4V9.9c0-2.98,2.42-5.4,5.4-5.4H58.5V24c0,.83,.67,1.5,1.5,1.5h20.5V98.1Z"/><path class="cls-1" d="M60.5,55c0-9.65-7.85-17.5-17.5-17.5s-17.5,7.85-17.5,17.5c0,6.56,3.64,12.29,9,15.28v9.72c0,4.69,3.81,8.5,8.5,8.5s8.5-3.81,8.5-8.5v-9.72c5.36-2.99,9-8.72,9-15.28Zm-12,25c0,3.03-2.47,5.5-5.5,5.5s-5.5-2.47-5.5-5.5v-.5h11v.5Zm0-7.49v3.99h-11v-6h11v2.01Zm1.81-5.01h-14.62c-4.29-2.52-7.19-7.17-7.19-12.5,0-8,6.5-14.5,14.5-14.5s14.5,6.5,14.5,14.5c0,5.33-2.9,9.98-7.19,12.5Z"/><path class="cls-1" d="M48.41,48.64l-2.91,2.91-2.91-2.91-.09,.09-.09-.09-2.91,2.91-2.91-2.91-4.95,4.95,7.78,7.78,.09-.09,.09,.09,2.91-2.91,2.91,2.91,.09-.09,.09,.09,7.78-7.78-4.95-4.95Zm-3,8.48l-.79-.79-1.95-1.95-.17-.17-.17,.17-1.95,1.95-.79,.79-.09-.09-.09,.09-2.74-2.74,.71-.71,2.12,2.12,.17-.17,1.95-1.95,.79-.79,.09,.09,.09-.09,.79,.79,1.95,1.95,.17,.17,2.12-2.12,.79-.79,.71,.71-.79,.79-2.74,2.74-.09-.09-.09,.09Z"/><rect class="cls-1" x="12.5" y="51.5" width="11" height="7"/><path class="cls-1" d="M62.5,58.5h11v-7h-11v7Zm3-4h5v1h-5v-1Z"/><path class="cls-1" d="M31.36,38.41l-7.78-7.78-4.95,4.95,7.78,7.78,4.95-4.95Zm-7.78-3.54l3.54,3.54-.71,.71-3.54-3.54,.71-.71Z"/><path class="cls-1" d="M54.68,71.39l7.54,8.01,5.1-4.79-7.54-8.01-5.1,4.79Zm7.67,3.77l-3.43-3.64,.73-.69,3.43,3.64-.73,.69Z"/><rect class="cls-1" x="19.5" y="69.5" width="11" height="7" transform="translate(-43.22 36.94) rotate(-43.24)"/><path class="cls-1" d="M59.59,43.36l7.78-7.78-4.95-4.95-7.78,7.78,4.95,4.95Zm3.54-7.78l-3.54,3.54-.71-.71,3.54-3.54,.71,.71Z"/><path class="cls-1" d="M46.5,24.5h-7v11h7v-11Zm-3,8h-1v-5h1v5Z"/></svg>