<svg width="300px" height="300px" viewBox="-50 -50 400 400" version="1.1" id="jelly">
	<path d="M179.75,145 C179.75,145 179.5,132.5 190.25,125 C201,117.5 211.5,105.75 210.5,89 C209.5,72.25 198.999023,60.7490234 190.25,55.75 C181.500977,50.7509766 170.75,51.5 170.75,51.5 C170.75,51.5 158,27.5 128.5,21.25 C99,15 81.75,28.25 76.7509766,31.5 C71.7519531,34.75 63.75,45.2480469 59.25,50.4990234 C54.75,55.75 53.7480469,61.7480469 42.2490234,59.4990234 C30.75,57.25 29.7490234,44.7490234 29.7490234,37.75 L29.7490234,12 C29.7490234,12 28.25,0 16,0 C3.75,0 2.89805256e-14,9.75 2.84217094e-14,18.5 L2.84217094e-14,55.7490234 C2.84217094e-14,55.7490234 1.25097656,76.25 11.5,93.75 C21.7490234,111.25 31.5,126.75 57.25,139.75 C83,152.75 113.25,150 113.25,150 C113.25,150 109.999023,165.748047 109.999023,174.749023 L109.999023,245.499023 C109.999023,245.499023 108.75,260.5 123,260.5 L148.5,260.5 C148.5,260.5 157.75,260.5 160.75,249.5 C161.405146,247.097798 162,243.25 163.75,240 C168.62737,230.942027 178.000977,220.5 194,220.5 C218.25,220.5 227.75,238.75 229.000977,247.25 C230.251953,255.75 233.25,260.125 241.25,260.125 L268.031297,260.125 C268.031297,260.125 280.25,261.5 280.25,245.499023 C280.25,229.498047 280.25,177.5 280.25,177.5 C280.25,177.5 280,149.75 265.5,128 C251,106.25 225.750977,94.75 225.750977,94.75" id="body" class="line jelly__body" fill="none" stroke="#FF2D3F" stroke-width="10"></path>
	</svg>